<svg xmlns="http://www.w3.org/2000/svg" viewBox="0 0 320.02 210.48"><defs><style>.cls-1{fill:#e94846;}.cls-1,.cls-2,.cls-3,.cls-4{stroke:#fff;stroke-miterlimit:10;}.cls-2{fill:#99cc83;}.cls-3{fill:#d1c465;stroke-width:2px;}.cls-4{fill:#74b755;}</style></defs><title>자산 1</title><g id="레이어_2" data-name="레이어 2"><g id="레이어_1-2" data-name="레이어 1"><path class="cls-1" d="M207.59,91.8c7.52,26.36.63,73.5-79.62,113.67C71.48,220.19,15.53,193.17,3,145.12S26.13,46.17,82.62,31.45C114.45,23.15,190.09,30.49,207.59,91.8Z"/><path class="cls-2" d="M128,19.65l12.35-19,16.28,9.44-14.29,14s44.58,21.08,31.86,46.75c0,0-21.71-31.67-35.6-34.48,0,0-6.2,44.61-25.93,52.46,0,0,13.83-55.08,7.42-56s-30.81-6.4-42.37,19.26C77.72,52.09,76.09,9.74,128,19.65Z"/><path class="cls-3" d="M165.9,91.62c-11.56,18.47-16.7,56,35.69,104.34,39.87,23.71,88.54,15.43,108.71-18.48s4.19-80.63-35.69-104.34C252.14,59.78,192.79,48.69,165.9,91.62Z"/><path class="cls-4" d="M233.44,54.12l-5.23-17.21-14.52,3.6,7.83,13.82S182.83,60.58,186.88,83c0,0,23.57-19.38,34.79-18.46,0,0-5.12,35.42,8.22,45.76,0,0,1.59-45.09,6.68-44.36S261.5,67.84,264.66,90C264.66,90,275.25,58,233.44,54.12Z"/></g></g></svg>