<svg xmlns="http://www.w3.org/2000/svg" viewBox="0 0 173.74 168.58"><defs><style>.cls-1{fill:#e94846;}.cls-2{fill:#99cc83;stroke:#fff;stroke-miterlimit:10;}</style></defs><title>자산 1</title><g id="레이어_2" data-name="레이어 2"><g id="레이어_1-2" data-name="레이어 1"><path class="cls-1" d="M171.81,71c6.25,21.86.53,61-66,94.3-46.87,12.22-93.29-10.2-103.68-50.07s19.18-82.09,66.05-94.3C94.54,14,157.3,20.08,171.81,71Z"/><path class="cls-2" d="M124.7,15.74,135.93.68l13,8.68-12.57,10.8S172.13,40,160.24,60.55c0,0-16.3-27.37-27.65-30.43,0,0-7.5,36.6-24.25,42.06,0,0,14.37-44.87,9.11-45.95S92.28,19.3,81.35,39.94C81.35,39.94,82.25,4.78,124.7,15.74Z"/></g></g></svg>